# xmcd
#
# Track frame offsets:
#	150
#	14880
#	34911
#	51946
#	68980
#	81706
#	94794
#	109495
#	123372
#	139020
#	152293
#	165770
#	181402
#	199555
#	217390
#
# Disc length: 3221 seconds
#
# Revision: 0
# Processed by: cddbd v1.5.2PL0 Copyright (c) Steve Scherf et al.
# Submitted via: EasyCDDAExtractor 10.0.1.1
#
DISCID=da0c930f
DTITLE=Portal Gaucho - Ao vivo 10 anos
DYEAR=2008
DGENRE=Gaucho
TTITLE0=Segura galera
TTITLE1=Festa do batidão
TTITLE2=Bobeou a gente pimba
TTITLE3=Só quer amar
TTITLE4=Se eu choro
TTITLE5=No copo ou na latinha
TTITLE6=Na moda "loca"
TTITLE7=Beija Beila
TTITLE8=Morro de saudade
TTITLE9=O palco caiu
TTITLE10=Não rola mais
TTITLE11=Assim como ela
TTITLE12=Muierengo e beberrão/Traz mais uma
TTITLE13=Cicatriz/Yo quiero amarte
TTITLE14=Do tipo que o velho gosta/Bate coxa na vaneira/Ela só
EXTD=
EXTT0=
EXTT1=
EXTT2=
EXTT3=
EXTT4=
EXTT5=
EXTT6=
EXTT7=
EXTT8=
EXTT9=
EXTT10=
EXTT11=
EXTT12=
EXTT13=
EXTT14=
PLAYORDER=
